<svg width="74" height="100" viewBox="0 0 254 249" fill="none" xmlns="http://www.w3.org/2000/svg">
<path d="M127 0C56.8325 0 0 57.123 0 127.649C0 184.134 36.3537 231.843 86.8362 248.756C93.1862 249.873 95.5675 246.044 95.5675 242.693C95.5675 239.661 95.4088 229.609 95.4088 218.918C63.5 224.822 55.245 211.1 52.705 203.919C51.2762 200.249 45.085 188.921 39.6875 185.889C35.2425 183.496 28.8925 177.592 39.5288 177.432C49.53 177.273 56.6738 186.687 59.055 190.516C70.485 209.823 88.7413 204.398 96.0438 201.047C97.155 192.75 100.489 187.165 104.14 183.974C75.8825 180.783 46.355 169.773 46.355 120.948C46.355 107.066 51.2763 95.5772 59.3725 86.6418C58.1025 83.4506 53.6575 70.3666 60.6425 52.8148C60.6425 52.8148 71.2788 49.464 95.5675 65.8988C105.727 63.0267 116.523 61.5907 127.318 61.5907C138.113 61.5907 148.908 63.0267 159.068 65.8988C183.356 49.3045 193.993 52.8148 193.993 52.8148C200.978 70.3666 196.533 83.4506 195.263 86.6418C203.359 95.5772 208.28 106.906 208.28 120.948C208.28 169.933 178.594 180.783 150.336 183.974C154.94 187.963 158.909 195.622 158.909 207.589C158.909 224.662 158.75 238.385 158.75 242.693C158.75 246.044 161.131 250.033 167.481 248.756C192.694 240.203 214.604 223.918 230.124 202.192C245.645 180.467 253.996 154.395 254 127.649C254 57.123 197.168 0 127 0Z" fill="#4553FE"/>
</svg>
