<svg width="74" height="100" viewBox="0 0 288 266" fill="none" xmlns="http://www.w3.org/2000/svg">
<path d="M56.4372 0C25.4012 0 0 23.4603 0 52.1261V213.882C0 242.548 25.4006 266 56.4372 266H231.572C262.608 266 288 242.548 288 213.882V52.1261C288 23.4608 262.608 0 231.572 0H56.4372ZM70.632 43.8953C85.5132 43.8953 94.6793 52.9183 94.9623 64.7788C94.9623 76.3775 85.5126 85.6541 70.3442 85.6541H70.065C55.4671 85.6541 46.0319 76.378 46.0319 64.7788C46.0319 52.9186 55.7527 43.8953 70.6318 43.8953H70.632ZM198.871 99.33C227.49 99.33 248.945 116.607 248.945 153.734V223.044H205.451V158.381C205.451 142.132 199.156 131.046 183.416 131.046C171.4 131.046 164.238 138.518 161.093 145.736C159.945 148.318 159.662 151.925 159.662 155.538V223.044H116.169C116.169 223.044 116.74 113.507 116.169 102.165H159.671V119.282C165.451 111.046 175.79 99.3298 198.871 99.3298V99.33ZM48.5973 102.173H92.0908V223.044H48.5973V102.173V102.173Z" fill="#4553FE"/>
</svg>
