<svg width="75" height="75" viewBox="0 0 191 197" fill="none" xmlns="http://www.w3.org/2000/svg">
<path d="M119.152 74.0173L95.5172 0.242371L71.882 74.0173L0.976318 98.609L71.882 123.201L95.5172 196.976L119.152 123.201L190.058 98.609L119.152 74.0173ZM32.4899 98.609L79.7604 82.2146L87.6388 98.609H32.4899ZM95.5172 164.187L79.7604 115.003L95.5172 106.806V164.187ZM95.5172 33.0312L111.274 82.2146L95.5172 90.4118V33.0312ZM111.274 115.003L103.396 98.609H158.544L111.274 115.003ZM69.5185 142.054L40.3684 155.99L53.7616 125.66L66.3671 129.758L69.5185 142.054ZM137.273 125.66L150.666 155.99L121.516 142.054L125.455 128.939L137.273 125.66ZM53.7616 71.5582L40.3684 41.2285L69.5185 55.1637L65.5793 67.4596L53.7616 71.5582ZM121.516 55.1637L150.666 41.2285L137.273 71.5582L124.667 67.4596L121.516 55.1637Z" fill="#4553FE"/>
</svg>
