<svg width="77" height="77" viewBox="0 0 77 77" fill="none" xmlns="http://www.w3.org/2000/svg">
<path d="M61.75 29.7813H55.9375C55.9352 27.4696 55.0159 25.2533 53.3813 23.6187C51.7467 21.9842 49.5304 21.0648 47.2188 21.0625V15.25C51.0713 15.2546 54.7647 16.7871 57.4888 19.5112C60.2129 22.2354 61.7454 25.9288 61.75 29.7813V29.7813Z" fill="#4553FE"/>
<path d="M73.375 29.7813H67.5625C67.5563 24.3877 65.411 19.2167 61.5972 15.4029C57.7833 11.589 52.6124 9.44368 47.2188 9.43753V3.62503C54.1535 3.63272 60.8019 6.39093 65.7055 11.2945C70.6091 16.1981 73.3673 22.8466 73.375 29.7813V29.7813Z" fill="#4553FE"/>
<path d="M51.0928 54.4321L57.6028 47.9221C58.4742 47.0505 59.5822 46.4537 60.7895 46.2057C61.9968 45.9578 63.2503 46.0695 64.3947 46.5271L72.323 49.7007C73.4915 50.1683 74.4931 50.9752 75.1987 52.0175C75.9042 53.0597 76.2813 54.2895 76.2813 55.5481V69.966C76.2833 70.8229 76.1104 71.6713 75.7732 72.4591C75.436 73.2469 74.9416 73.9576 74.3202 74.5477C73.6988 75.1378 72.9636 75.5949 72.1594 75.891C71.3552 76.1871 70.4991 76.3159 69.6434 76.2696C14.0701 72.8112 2.84615 25.7416 0.762368 7.71702C0.661444 6.83584 0.748222 5.94327 1.017 5.09802C1.28577 4.25278 1.73045 3.47401 2.32178 2.81295C2.91311 2.15189 3.6377 1.62351 4.44788 1.26257C5.25806 0.901623 6.13548 0.716296 7.02243 0.718775H21.1846C22.4432 0.718734 23.6729 1.09581 24.7152 1.80135C25.7575 2.5069 26.5644 3.50854 27.032 4.67709L30.2027 12.6053C30.6603 13.7497 30.772 15.0033 30.524 16.2106C30.276 17.4178 29.6793 18.5258 28.8077 19.3972L22.2977 25.9072C22.2977 25.9072 25.9072 51.2846 51.0928 54.4321Z" fill="#4553FE"/>
</svg>
